<?xml version="1.0" encoding="UTF-8"?>
<svg width="40px" height="40px" viewBox="0 0 40 40" version="1.1" xmlns="http://www.w3.org/2000/svg" xmlns:xlink="http://www.w3.org/1999/xlink">
    <title>icon/ mobio transfer</title>
    <g id="icon/-mobio-transfer" stroke="none" stroke-width="1" fill="none" fill-rule="evenodd">
        <path d="M15.3833112,-6.21504185e-16 L24.6166888,6.21504185e-16 C29.9658012,-3.61111829e-16 31.9055187,0.556953667 33.8610742,1.60279622 C35.8166298,2.64863878 37.3513612,4.18337022 38.3972038,6.13892578 C39.4430463,8.09448133 40,10.0341988 40,15.3833112 L40,24.6166888 C40,29.9658012 39.4430463,31.9055187 38.3972038,33.8610742 C37.3513612,35.8166298 35.8166298,37.3513612 33.8610742,38.3972038 C31.9055187,39.4430463 29.9658012,40 24.6166888,40 L15.3833112,40 C10.0341988,40 8.09448133,39.4430463 6.13892578,38.3972038 C4.18337022,37.3513612 2.64863878,35.8166298 1.60279622,33.8610742 C0.556953667,31.9055187 2.4074122e-16,29.9658012 -4.14336123e-16,24.6166888 L4.14336123e-16,15.3833112 C-2.4074122e-16,10.0341988 0.556953667,8.09448133 1.60279622,6.13892578 C2.64863878,4.18337022 4.18337022,2.64863878 6.13892578,1.60279622 C8.09448133,0.556953667 10.0341988,3.61111829e-16 15.3833112,-6.21504185e-16 Z" id="Rectangle" fill="#0088DB"></path>
        <g id="Group-9" transform="translate(6.000000, 8.000000)" stroke="#FFFFFF">
            <path d="M20.1144045,0 L7.88559554,0 C7.25473039,0 6.6719895,0.332477851 6.35786941,0.870816341 L0.23296511,11.3886584 C-0.0776550366,11.9218289 -0.0776550366,12.5781711 0.23296511,13.1122029 L6.35786941,23.6291837 C6.6719895,24.1683835 7.25473039,24.5 7.88559554,24.5 L20.1144045,24.5 C20.7452696,24.5 21.3280105,24.1683835 21.6412556,23.6291837 L27.7670349,13.1122029 C28.077655,12.5781711 28.077655,11.9218289 27.7670349,11.3886584 L21.6412556,0.870816341 C21.3280105,0.332477851 20.7452696,0 20.1144045,0 Z" id="Stroke-1" stroke-width="2" opacity="0.1"></path>
            <path d="M2.24727114,16.275566 L9.93052609,23.8924096 C10.3802691,24.3385846 11.0382588,24.5125756 11.6551241,24.3489207 L22.1383353,21.5642033 C22.7517008,21.4014098 23.2303183,20.9285333 23.3930657,20.3247328 L26.2087717,9.9076677 C26.3715192,9.30645127 26.1982719,8.66561313 25.7529039,8.22460624 L18.0696489,0.607762621 C17.619031,0.161587681 16.9610412,-0.0124033188 16.3450509,0.151251582 L5.86096467,2.93596892 C5.24759926,3.09876248 4.76985672,3.57163901 4.60623428,4.17543946 L1.79140326,14.5925046 C1.62778082,15.193721 1.8019031,15.8336978 2.24727114,16.275566 Z" id="Stroke-3" stroke-width="2" opacity="0.4"></path>
            <path d="M24.0877174,16.9770426 L24.0877174,7.52295739 C24.0877174,6.87436718 23.7377228,6.27573478 23.1681067,5.95014766 L14.9292355,1.23430249 C14.3543695,0.905270004 13.6447556,0.905270004 13.0707645,1.23430249 L4.83189325,5.95014766 C4.26227715,6.27573478 3.91228262,6.87436718 3.91228262,7.52295739 L3.91228262,16.9770426 C3.91228262,17.6256328 4.26227715,18.2242652 4.83189325,18.5498523 L13.0707645,23.2665589 C13.6447556,23.59473 14.3543695,23.59473 14.9292355,23.2665589 L23.1681067,18.5498523 C23.7377228,18.2242652 24.0877174,17.6256328 24.0877174,16.9770426 Z" id="Stroke-5" stroke-width="2"></path>
            <path d="M17.5629443,15.0743391 C17.5629443,15.2913971 17.4456962,15.3628885 17.2558241,15.4714175 L14.3071202,17.1114119 C14.1172482,17.2199409 13.8827518,17.2199409 13.6928798,17.1114119 L10.8097998,15.4714175 C10.6199278,15.3628885 10.5026796,15.2913971 10.5026796,15.0743391 L10.5026796,15.0614189 C10.5026796,13.2198706 12.141529,11.7900436 14,11.7900436 C15.858471,11.7900436 17.5629443,13.2198706 17.5629443,15.0614189 L17.5629443,15.0743391 Z M14,7.17669807 C14.9843596,7.17669807 15.7832221,7.96827099 15.7832221,8.94503234 C15.7832221,9.9217937 14.9843596,10.7133666 14,10.7133666 C13.0147654,10.7133666 12.2167779,9.9217937 12.2167779,8.94503234 C12.2167779,7.96827099 13.0147654,7.17669807 14,7.17669807 L14,7.17669807 Z M15.8724707,11.1009703 C16.4832112,10.578136 16.8699552,9.80723527 16.8699552,8.94503234 C16.8699552,7.3739453 15.5854752,6.09915975 14,6.09915975 C12.4145248,6.09915975 11.1291699,7.3739453 11.1291699,8.94503234 C11.1291699,9.80723527 11.5167888,10.578136 12.1275293,11.1009703 C10.4764301,11.8167452 9.32319808,13.4489875 9.32319808,15.349107 L9.32319808,15.3663338 C9.32319808,15.6678034 9.48594553,15.9486008 9.74931642,16.0993355 L13.5730067,18.2880045 C13.8372525,18.4387393 14.1627475,18.4387393 14.4269933,18.2880045 L18.2506836,16.0993355 C18.5140545,15.9486008 18.6768019,15.6678034 18.6768019,15.3663338 L18.6768019,15.349107 C18.6768019,13.4489875 17.5235699,11.8167452 15.8724707,11.1009703 L15.8724707,11.1009703 Z" id="Fill-7" stroke-width="0.5" fill="#FFFFFF"></path>
        </g>
    </g>
</svg>