<?xml version="1.0" encoding="UTF-8"?>
<svg width="24px" height="24px" viewBox="0 0 24 24" version="1.1" xmlns="http://www.w3.org/2000/svg" xmlns:xlink="http://www.w3.org/1999/xlink">
    <title>icon/ show_gray</title>
    <g id="icon/-show_gray" stroke="none" stroke-width="1" fill="none" fill-rule="evenodd">
        <g id="vuesax/bold/eye" transform="translate(0.000000, -0.000000)">
            <path d="M12,3.4296875 C10.22,3.4296875 8.48999989,3.94968748 6.90999985,4.91968751 C5.3299998,5.89968753 3.90999997,7.32968676 2.75,9.14968681 C1.75,10.7196869 1.75,13.2696873 2.75,14.8396873 C5.05999994,18.4796875 8.44000006,20.5596867 12,20.5596867 C13.78,20.5596867 15.5100001,20.0396869 17.0900002,19.0696869 C18.6700002,18.0896869 20.09,16.6596874 21.25,14.8396873 C22.25,13.2796874 22.25,10.7196869 21.25,9.14968681 C18.9400001,5.5196867 15.5599999,3.4296875 12,3.4296875 Z M7.96000004,11.9996872 C7.96000004,9.76968718 9.75999999,7.95968723 12,7.95968723 C14.24,7.95968723 16.0400009,9.76968718 16.0400009,11.9996872 C16.0400009,14.2296872 14.24,16.0396881 12,16.0396881 C9.75999999,16.0396881 7.96000004,14.2296872 7.96000004,11.9996872 Z" id="Vector" fill="#999999"></path>
            <path d="M9.1484375,12.0006247 C9.1484375,13.5706247 10.4284378,14.850625 11.9984379,14.850625 C13.5684379,14.850625 14.8584375,13.5706247 14.8584375,12.0006247 C14.8584375,10.4306246 13.5684379,9.140625 11.9984379,9.140625 C10.4284378,9.140625 9.1484375,10.4206246 9.1484375,12.0006247 Z" id="Vector" fill="#999999" fill-rule="nonzero"></path>
            <path d="M24,0 L24,24 L0,24 L0,0 L24,0 Z" id="Vector" opacity="0" transform="translate(12.000000, 12.000000) rotate(-180.000000) translate(-12.000000, -12.000000) "></path>
        </g>
    </g>
</svg>