<?xml version="1.0" encoding="UTF-8"?>
<svg width="80px" height="81px" viewBox="0 0 80 81" version="1.1" xmlns="http://www.w3.org/2000/svg" xmlns:xlink="http://www.w3.org/1999/xlink">
    <title>icon/ done</title>
    <g id="Page-1" stroke="none" stroke-width="1" fill="none" fill-rule="evenodd">
        <g id="Mobio-11---success" transform="translate(-148.000000, -108.000000)" fill-rule="nonzero">
            <g id="icon/-done" transform="translate(148.000000, 108.000000)">
                <path d="M78.1818182,16.2 C79.1854545,16.2 80,17.0064 80,18 C80,18.9936 79.1854545,19.8 78.1818182,19.8 C77.1781818,19.8 76.3636364,18.9936 76.3636364,18 C76.3636364,17.0064 77.1781818,16.2 78.1818182,16.2 Z" id="Path" fill="#94D4FF"></path>
                <path d="M78.1818182,63 C79.1854545,63 80,63.8064 80,64.8 C80,65.7936 79.1854545,66.6 78.1818182,66.6 C77.1781818,66.6 76.3636364,65.7936 76.3636364,64.8 C76.3636364,63.8064 77.1781818,63 78.1818182,63 Z" id="Path" fill="#94D4FF"></path>
                <path d="M69.0909091,73.8 C71.1,73.8 72.7272727,75.411 72.7272727,77.4 C72.7272727,79.389 71.1,81 69.0909091,81 C67.0818182,81 65.4545455,79.389 65.4545455,77.4 C65.4545455,75.411 67.0818182,73.8 69.0909091,73.8 Z" id="Path" fill="#3256C1"></path>
                <path d="M65.4545455,0 C66.4581818,0 67.2727273,0.8064 67.2727273,1.8 C67.2727273,2.7936 66.4581818,3.6 65.4545455,3.6 C64.4509091,3.6 63.6363636,2.7936 63.6363636,1.8 C63.6363636,0.8064 64.4509091,0 65.4545455,0 Z" id="Path" fill="#94D4FF"></path>
                <path d="M40,5.4 C19.9163636,5.4 3.63636364,21.5172 3.63636364,41.4 C3.63636364,61.2828 19.9163636,77.4 40,77.4 C60.0836364,77.4 76.3636364,61.2828 76.3636364,41.4 C76.3636364,21.5172 60.0836364,5.4 40,5.4 Z" id="Path" fill="#0088DB"></path>
                <path d="M40,68.4 C24.9381818,68.4 12.7272727,56.3112 12.7272727,41.4 C12.7272727,26.4888 24.9381818,14.4 40,14.4 C55.0618182,14.4 67.2727273,26.4888 67.2727273,41.4 C67.2727273,56.3112 55.0618182,68.4 40,68.4 Z" id="Path" fill="#FFFFFF"></path>
                <path d="M53.518,32.8896 C54.9381818,34.2954 54.9381818,36.5742 53.518,37.98 L40.6616364,50.7096 L35.5198182,55.8 L30.3761818,50.7096 L26.5198182,46.89 C25.8109091,46.188 25.4545455,45.2664 25.4545455,44.3448 C25.4545455,43.4232 25.8109091,42.5016 26.5198182,41.79942 C27.94,40.39362 30.2418182,40.39362 31.6616364,41.79942 L35.5198182,45.61722 L48.3763636,32.8896 C49.0872727,32.1876 50.0163636,31.8348 50.9472727,31.8348 C51.8781818,31.8348 52.8072727,32.1876 53.518,32.8896 Z" id="Path" fill="#07CC66"></path>
                <path d="M12.7272727,77.4 C13.7309091,77.4 14.5454545,78.2064 14.5454545,79.2 C14.5454545,80.1936 13.7309091,81 12.7272727,81 C11.7234545,81 10.9090909,80.1936 10.9090909,79.2 C10.9090909,78.2064 11.7234545,77.4 12.7272727,77.4 Z" id="Path" fill="#94D4FF"></path>
                <path d="M8.18181818,3.6 C10.6927273,3.6 12.7272727,5.6142 12.7272727,8.1 C12.7272727,10.5858 10.6927273,12.6 8.18181818,12.6 C5.67072727,12.6 3.63636364,10.5858 3.63636364,8.1 C3.63636364,5.6142 5.67072727,3.6 8.18181818,3.6 Z" id="Path" fill="#3256C1"></path>
                <path d="M1.81818182,18 C2.82181818,18 3.63636364,18.8064 3.63636364,19.8 C3.63636364,20.7936 2.82181818,21.6 1.81818182,21.6 C0.814363636,21.6 -1.29189588e-15,20.7936 -1.29189588e-15,19.8 C-1.29189588e-15,18.8064 0.814363636,18 1.81818182,18 Z" id="Path" fill="#94D4FF"></path>
                <path d="M1.81818182,63 C2.82181818,63 3.63636364,63.8064 3.63636364,64.8 C3.63636364,65.7936 2.82181818,66.6 1.81818182,66.6 C0.814363636,66.6 -1.29189588e-15,65.7936 -1.29189588e-15,64.8 C-1.29189588e-15,63.8064 0.814363636,63 1.81818182,63 Z" id="Path" fill="#94D4FF"></path>
                <g id="Group" transform="translate(18.181818, 14.400000)" fill="#D0DCE7">
                    <path d="M43.6363636,27 C43.6363636,26.00586 42.8221818,25.2 41.8181818,25.2 C40.8141818,25.2 40,26.00586 40,27 C40,36.92538 31.8438182,45 21.8181818,45 C20.814,45 20,45.80604 20,46.8 L20,53.9388 C20.6010909,53.97804 21.2070909,54 21.8181818,54 C22.4292727,54 23.0350909,53.97804 23.6363636,53.9388 L23.6363636,48.52566 C34.8192727,47.60784 43.6363636,38.304 43.6363636,27 Z" id="Path"></path>
                    <path d="M0,27 C0,27.99396 0.814,28.8 1.81818182,28.8 C2.82218182,28.8 3.63636364,27.99396 3.63636364,27 C3.63636364,17.0748 11.7925455,9 21.8181818,9 C22.8221818,9 23.6363636,8.19414 23.6363636,7.2 L23.6363636,0.0612 C23.0350909,0.02196 22.4292727,0 21.8181818,0 C21.2070909,0 20.6010909,0.02196 20,0.0612 L20,5.47434 C8.81709091,6.39216 0,15.696 0,27 Z" id="Path"></path>
                </g>
            </g>
        </g>
    </g>
</svg>