<?xml version="1.0" encoding="UTF-8"?>
<svg width="40px" height="40px" viewBox="0 0 40 40" version="1.1" xmlns="http://www.w3.org/2000/svg" xmlns:xlink="http://www.w3.org/1999/xlink">
    <title>icon/ invest</title>
    <g id="icon/-invest" stroke="none" stroke-width="1" fill="none" fill-rule="evenodd">
        <path d="M15.3833112,-6.21504185e-16 L24.6166888,6.21504185e-16 C29.9658012,-3.61111829e-16 31.9055187,0.556953667 33.8610742,1.60279622 C35.8166298,2.64863878 37.3513612,4.18337022 38.3972038,6.13892578 C39.4430463,8.09448133 40,10.0341988 40,15.3833112 L40,24.6166888 C40,29.9658012 39.4430463,31.9055187 38.3972038,33.8610742 C37.3513612,35.8166298 35.8166298,37.3513612 33.8610742,38.3972038 C31.9055187,39.4430463 29.9658012,40 24.6166888,40 L15.3833112,40 C10.0341988,40 8.09448133,39.4430463 6.13892578,38.3972038 C4.18337022,37.3513612 2.64863878,35.8166298 1.60279622,33.8610742 C0.556953667,31.9055187 2.4074122e-16,29.9658012 -4.14336123e-16,24.6166888 L4.14336123e-16,15.3833112 C-2.4074122e-16,10.0341988 0.556953667,8.09448133 1.60279622,6.13892578 C2.64863878,4.18337022 4.18337022,2.64863878 6.13892578,1.60279622 C8.09448133,0.556953667 10.0341988,3.61111829e-16 15.3833112,-6.21504185e-16 Z" id="Rectangle-Copy-7" fill="#0088DB"></path>
        <g id="status-up" transform="translate(6.000000, 6.000000)">
            <line x1="8.02652995" y1="21.1750908" x2="8.02652995" y2="18.7600911" id="Vector" stroke="#FFFFFF" stroke-width="2" opacity="0.400000006" stroke-linecap="round" stroke-dasharray="0,0"></line>
            <line x1="14" y1="21.1747259" x2="14" y2="16.3447266" id="Vector" stroke="#FFFFFF" stroke-width="2" opacity="0.400000006" stroke-linecap="round" stroke-dasharray="0,0"></line>
            <line x1="19.9734701" y1="21.1752043" x2="19.9734701" y2="13.9185384" id="Vector" stroke="#FFFFFF" stroke-width="2" opacity="0.400000006" stroke-linecap="round" stroke-dasharray="0,0"></line>
            <g id="Group-709" opacity="0.400000006" transform="translate(8.026530, 6.824544)" fill-rule="nonzero" stroke="#FFFFFF" stroke-dasharray="0,0" stroke-linecap="round" stroke-width="2">
                <path d="M11.9466675,0 L11.4099997,0.629999955 C8.43499974,4.10666664 4.44499993,6.56833381 0,7.67666713" id="Vector"></path>
                <path d="M8.52897135,0 L11.9473062,0 L11.9473062,3.40666731" id="Vector" stroke-linejoin="round"></path>
            </g>
            <path d="M17.5,25.6666667 C23.3333333,25.6666667 25.6666667,23.3333333 25.6666667,17.5 L25.6666667,10.5 C25.6666667,4.66666667 23.3333333,2.33333333 17.5,2.33333333 L10.5,2.33333333 C4.66666667,2.33333333 2.33333333,4.66666667 2.33333333,10.5 L2.33333333,17.5 C2.33333333,23.3333333 4.66666667,25.6666667 10.5,25.6666667 L17.5,25.6666667 Z" id="Vector" stroke="#FFFFFF" stroke-width="2" stroke-linecap="round" stroke-linejoin="round" stroke-dasharray="0,0" fill-rule="nonzero"></path>
            <path d="M28,0 L28,28 L0,28 L0,0 L28,0 Z" id="Vector" opacity="0"></path>
        </g>
    </g>
</svg>