<?xml version="1.0" encoding="UTF-8"?>
<svg width="24px" height="24px" viewBox="0 0 24 24" version="1.1" xmlns="http://www.w3.org/2000/svg" xmlns:xlink="http://www.w3.org/1999/xlink">
    <title>icon/ hide_white</title>
    <g id="icon/-hide_white" stroke="none" stroke-width="1" fill="none" fill-rule="evenodd">
        <g id="vuesax/bold/eye-slash" transform="translate(0.000000, -0.000000)">
            <path d="M20.6789074,2.22890626 C20.9789074,1.92890625 21.4689075,1.92890625 21.7689075,2.22890626 C22.0789075,2.52890627 22.0789075,3.00890619 21.7689075,3.3089062 L21.7689075,3.3089062 L3.3089062,21.7689075 C3.15890619,21.9189076 2.96890624,21.9989071 2.76890624,21.9989071 C2.56890623,21.9989071 2.37890626,21.9189078 2.22890626,21.7789078 C1.92890625,21.4789078 1.92890625,20.9889076 2.22890626,20.6889076 L2.22890626,20.6889076 L5.16886335,17.7480369 C4.28330046,16.9356271 3.46587037,15.9587491 2.75,14.8396873 C1.75,13.2696873 1.75,10.7196869 2.75,9.14968681 C3.90999997,7.32968676 5.3299998,5.89968753 6.90999985,4.91968751 C8.48999989,3.95968753 10.22,3.4296875 12,3.4296875 C13.9856428,3.4296875 15.9157859,4.07982668 17.6280553,5.28126876 Z M18.861414,7.79834136 C19.2814139,7.37834138 19.9814137,7.41834104 20.3514137,7.88834104 C20.6714137,8.28834105 20.9814138,8.7183415 21.2714138,9.17834151 C22.2214138,10.6883415 22.271413,13.2283409 21.321413,14.7383409 C20.1514131,16.6083409 18.7014135,18.0783415 17.0914135,19.0783415 C15.5114135,20.0483415 13.7814133,20.5683413 12.0014133,20.5683413 C10.8614134,20.5683413 9.75141376,20.3583423 8.68141371,19.9483423 C8.01141369,19.6883423 7.85141379,18.808341 8.35141379,18.308341 L8.35141379,18.308341 L10.8114138,15.8483419 C11.4714138,16.0683419 12.2314138,16.1083414 13.0214138,15.9083414 C14.4314138,15.5583414 15.5714134,14.4183413 15.9214134,13.0083413 C16.1214134,12.2183413 16.081413,11.4583413 15.861413,10.7983413 L15.861413,10.7983413 Z M14.8381252,11.828125 C14.8581247,11.888125 14.8581247,11.9381251 14.8581247,11.9981251 C14.8581247,13.5681251 13.5781251,14.8581247 11.9981251,14.8581247 C11.9381251,14.8581247 11.888125,14.8581247 11.828125,14.8381252 L14.8381252,11.828125 Z M12,7.95968723 C9.75999999,7.95968723 7.96000004,9.76968718 7.96000004,11.9996872 C7.96000004,12.8409915 8.21391191,13.6202284 8.64968206,14.2653447 L9.51370907,13.4000781 C9.27848731,12.9838616 9.140625,12.504776 9.140625,12.0006247 C9.140625,10.4306246 10.4206246,9.140625 12.0006247,9.140625 C12.5043661,9.140625 12.9830826,9.27826323 13.3990629,9.51313555 L14.2656575,8.64515711 C13.6205412,8.20795663 12.8413044,7.95968723 12,7.95968723 Z" id="Combined-Shape" fill="#FFFFFF" fill-rule="nonzero"></path>
            <path d="M24,0 L24,24 L0,24 L0,0 L24,0 Z" id="Vector" opacity="0" transform="translate(12.000000, 12.000000) rotate(-180.000000) translate(-12.000000, -12.000000) "></path>
        </g>
    </g>
</svg>