<?xml version="1.0" encoding="UTF-8"?>
<svg width="24px" height="24px" viewBox="0 0 24 24" version="1.1" xmlns="http://www.w3.org/2000/svg" xmlns:xlink="http://www.w3.org/1999/xlink">
    <title>icon/ home_unactive</title>
    <g id="icon/-home_unactive" stroke="none" stroke-width="1" fill="none" fill-rule="evenodd">
        <g id="vuesax/bold/category-2" transform="translate(0.000000, -0.000000)">
            <g id="category-2" transform="translate(0.000000, -0.000000)">
                <path d="M16.769454,2 C14.5894539,2 13.4394531,3.14999986 13.4394531,5.32999992 L13.4394531,7.23000002 C13.4394531,9.41000009 14.5894539,10.5600004 16.769454,10.5600004 L18.6694536,10.5600004 C20.8494537,10.5600004 21.9994535,9.41000009 21.9994535,7.23000002 L21.9994535,5.32999992 C21.9994535,3.14999986 20.8494537,2 18.6694536,2 L16.769454,2 Z" id="Vector" fill="#D6D6D6" fill-rule="nonzero"></path>
                <path d="M5.34000015,13.4296875 C3.1500001,13.4296875 2,14.5796874 2,16.7596874 L2,18.659687 C2,20.8496871 3.14999986,21.9996872 5.32999992,21.9996872 L7.23000002,21.9996872 C9.41000009,21.9996872 10.5600653,20.8496873 10.5600653,18.6696873 L10.5600653,16.7696877 C10.5700004,14.5796876 9.41999984,13.4296875 7.23999977,13.4296875 L5.34000015,13.4296875 Z" id="Vector" fill="#D6D6D6" fill-rule="nonzero"></path>
                <path d="M6.28999996,10.5799999 C3.9206984,10.5799999 2,8.65930152 2,6.28999996 C2,3.9206984 3.9206984,2 6.28999996,2 C8.65930152,2 10.5799999,3.9206984 10.5799999,6.28999996 C10.5799999,8.65930152 8.65930152,10.5799999 6.28999996,10.5799999 Z" id="Vector" fill="#D6D6D6"></path>
                <path d="M17.7099209,22.0018749 C15.3406193,22.0018749 13.4199219,20.0811756 13.4199219,17.711874 C13.4199219,15.3425725 15.3406193,13.421875 17.7099209,13.421875 C20.0792224,13.421875 21.9999218,15.3425725 21.9999218,17.711874 C21.9999218,20.0811756 20.0792224,22.0018749 17.7099209,22.0018749 Z" id="Vector" fill="#D6D6D6"></path>
                <path d="M24,0 L24,24 L0,24 L0,0 L24,0 Z" id="Vector" opacity="0" transform="translate(12.000000, 12.000000) rotate(-180.000000) translate(-12.000000, -12.000000) "></path>
            </g>
        </g>
    </g>
</svg>