<?xml version="1.0" encoding="UTF-8"?>
<svg width="24px" height="24px" viewBox="0 0 24 24" version="1.1" xmlns="http://www.w3.org/2000/svg" xmlns:xlink="http://www.w3.org/1999/xlink">
    <title>icon/ transaction_unactive</title>
    <g id="icon/-transaction_unactive" stroke="none" stroke-width="1" fill="none" fill-rule="evenodd">
        <g id="vuesax/bold/clock" transform="translate(0.000000, -0.000000)">
            <g id="clock" transform="translate(0.000000, -0.000000)">
                <path d="M2,12 C2,17.5100002 6.48999977,22 12,22 C17.5100002,22 22,17.5100002 22,12 C22,6.48999977 17.5100002,2 12,2 C6.48999977,2 2,6.48999977 2,12 Z M15.6999998,15.9399996 C15.5699998,15.9399996 15.4399997,15.9099999 15.3199997,15.8299999 L12.2200003,13.9799995 C11.4500003,13.5199995 10.8800001,12.5099999 10.8800001,11.6199999 L10.8800001,7.51999998 C10.8800001,7.10999998 11.2200001,6.76999998 11.6300001,6.76999998 C12.0400001,6.76999998 12.3800001,7.10999998 12.3800001,7.51999998 L12.3800001,11.6199999 C12.3800001,11.9799999 12.6799998,12.5099996 12.9899998,12.6899996 L16.0900002,14.54 C16.4500002,14.75 16.5700004,15.2099997 16.3500004,15.5699997 C16.2100004,15.8099997 15.9599998,15.9399996 15.6999998,15.9399996 Z" id="Vector" fill="#D6D6D6"></path>
                <path d="M24,0 L24,24 L0,24 L0,0 L24,0 Z" id="Vector" opacity="0" transform="translate(12.000000, 12.000000) rotate(-180.000000) translate(-12.000000, -12.000000) "></path>
            </g>
        </g>
    </g>
</svg>