<?xml version="1.0" encoding="UTF-8"?>
<svg width="24px" height="24px" viewBox="0 0 24 24" version="1.1" xmlns="http://www.w3.org/2000/svg" xmlns:xlink="http://www.w3.org/1999/xlink">
    <title>icon/ notification_active</title>
    <g id="icon/-notification_active" stroke="none" stroke-width="1" fill="none" fill-rule="evenodd">
        <g id="vuesax/bold/notification" transform="translate(0.000000, -0.000000)">
            <g id="notification" transform="translate(0.000000, -0.000000)">
                <path d="M9.1796875,20 C9.3096875,20.02 9.43968712,20.0299992 9.57968712,20.0499992 C9.80968712,20.0799992 10.0496872,20.1099992 10.2896872,20.1299992 C10.8596871,20.1799992 11.4396877,20.2099991 12.0196877,20.2099991 C12.5896876,20.2099991 13.1596875,20.1799992 13.7196875,20.1299992 C13.9296875,20.1099992 14.1396873,20.0999997 14.3396873,20.0699997 C14.4996873,20.0499997 14.6596871,20.0300002 14.8296871,20.0100002 C14.4096871,21.1700002 13.2996871,22 11.9996872,22 C11.2096872,22 10.4296873,21.6800006 9.87968731,21.1100006 C9.55968732,20.8100006 9.3196875,20.41 9.1796875,20 Z M11.9899426,2 C13.0899426,2 14.0499425,2.56999999 14.5699425,3.49000001 C16.5599425,4.44 17.9399433,6.46999979 17.9399433,8.81999969 L17.9399433,8.81999969 L17.9399433,11.3500004 C17.9399433,11.7600004 18.1299429,12.4599999 18.3399429,12.8299999 L18.3399429,12.8299999 L19.3399429,14.4899998 C19.7299429,15.1299998 19.7999437,15.8899999 19.5399437,16.5799999 C19.2799437,17.2699999 18.7399437,17.8000007 18.0399437,18.0300007 C16.0999436,18.6800007 14.0599432,19 12.0199432,19 C9.97994328,19 7.93994296,18.6800005 5.9999429,18.0200005 C5.25994289,17.7700005 4.68994272,17.2499999 4.44994272,16.5799999 C4.19994272,15.8999999 4.28994295,15.1599998 4.68994296,14.4899998 L4.68994296,14.4899998 L5.69994271,12.8199997 C5.9099427,12.4599997 6.0999428,11.7600004 6.0999428,11.3500004 L6.0999428,11.3500004 L6.0999428,8.81999969 C6.0999428,6.5 7.44994235,4.49000001 9.3999424,3.51999998 C9.91994238,2.58999997 10.8999425,2 11.9899426,2 Z" id="Combined-Shape" fill="#0088DB" fill-rule="nonzero"></path>
                <path d="M24,0 L24,24 L0,24 L0,0 L24,0 Z" id="Vector" opacity="0" transform="translate(12.000000, 12.000000) rotate(-180.000000) translate(-12.000000, -12.000000) "></path>
            </g>
        </g>
    </g>
</svg>