<?xml version="1.0" encoding="UTF-8"?>
<svg width="40px" height="40px" viewBox="0 0 40 40" version="1.1" xmlns="http://www.w3.org/2000/svg" xmlns:xlink="http://www.w3.org/1999/xlink">
    <title>icon/ bank transfer</title>
    <g id="icon/-bank-transfer" stroke="none" stroke-width="1" fill="none" fill-rule="evenodd">
        <path d="M15.3833112,-6.21504185e-16 L24.6166888,6.21504185e-16 C29.9658012,-3.61111829e-16 31.9055187,0.556953667 33.8610742,1.60279622 C35.8166298,2.64863878 37.3513612,4.18337022 38.3972038,6.13892578 C39.4430463,8.09448133 40,10.0341988 40,15.3833112 L40,24.6166888 C40,29.9658012 39.4430463,31.9055187 38.3972038,33.8610742 C37.3513612,35.8166298 35.8166298,37.3513612 33.8610742,38.3972038 C31.9055187,39.4430463 29.9658012,40 24.6166888,40 L15.3833112,40 C10.0341988,40 8.09448133,39.4430463 6.13892578,38.3972038 C4.18337022,37.3513612 2.64863878,35.8166298 1.60279622,33.8610742 C0.556953667,31.9055187 2.4074122e-16,29.9658012 -4.14336123e-16,24.6166888 L4.14336123e-16,15.3833112 C-2.4074122e-16,10.0341988 0.556953667,8.09448133 1.60279622,6.13892578 C2.64863878,4.18337022 4.18337022,2.64863878 6.13892578,1.60279622 C8.09448133,0.556953667 10.0341988,3.61111829e-16 15.3833112,-6.21504185e-16 Z" id="Rectangle-Copy-6" fill="#0088DB"></path>
        <g id="convert-card" transform="translate(6.000000, 6.000000)">
            <line x1="14" y1="6.48673503" x2="25.6666667" y2="6.48673503" id="Vector" stroke="#FFFFFF" stroke-width="2" stroke-linecap="round" stroke-linejoin="round" stroke-dasharray="0,0"></line>
            <path d="M23.0766652,2.33333333 C25.1533319,2.33333333 25.6666667,2.84666757 25.6666667,4.90000089 L25.6666667,9.6950016 C25.6666667,11.7483349 25.1533319,12.2616647 23.0766652,12.2616647 L16.5900014,12.2616647 C14.5133348,12.2616647 14,11.7483349 14,9.6950016 L14,4.90000089 C14,2.84666757 14.5133348,2.33333333 16.5900014,2.33333333 L23.0766652,2.33333333 Z" id="Vector" stroke="#FFFFFF" stroke-width="2" stroke-linecap="round" stroke-linejoin="round" stroke-dasharray="0,0" fill-rule="nonzero"></path>
            <line x1="2.33333333" y1="19.9034017" x2="14" y2="19.9034017" id="Vector" stroke="#FFFFFF" stroke-width="2" stroke-linecap="round" stroke-linejoin="round" stroke-dasharray="0,0"></line>
            <path d="M11.4099986,15.75 C13.4866652,15.75 14,16.2633342 14,18.3166676 L14,23.1116683 C14,25.1650016 13.4866652,25.6783358 11.4099986,25.6783358 L4.92333476,25.6783358 C2.84666812,25.6783358 2.33333333,25.1650016 2.33333333,23.1116683 L2.33333333,18.3166676 C2.33333333,16.2633342 2.84666812,15.75 4.92333476,15.75 L11.4099986,15.75 Z" id="Vector" stroke="#FFFFFF" stroke-width="2" stroke-linecap="round" stroke-linejoin="round" stroke-dasharray="0,0" fill-rule="nonzero"></path>
            <path d="M25.6666667,17.5 C25.6666667,22.0149999 22.0149999,25.6666667 17.5,25.6666667 L18.7249858,23.625" id="Vector" stroke="#FFFFFF" stroke-width="2" opacity="0.400000006" stroke-linecap="round" stroke-linejoin="round" stroke-dasharray="0,0" fill-rule="nonzero"></path>
            <path d="M2.33333333,10.5 C2.33333333,5.98500013 5.98500013,2.33333333 10.5,2.33333333 L9.27501424,4.375" id="Vector" stroke="#FFFFFF" stroke-width="2" opacity="0.400000006" stroke-linecap="round" stroke-linejoin="round" stroke-dasharray="0,0" fill-rule="nonzero"></path>
            <path d="M28,0 L28,28 L0,28 L0,0 L28,0 Z" id="Vector" opacity="0"></path>
        </g>
    </g>
</svg>